HIERARCHY
ROOT Hips
{
	OFFSET -0.001795 -0.223333 0.028219
	CHANNELS 6 Xposition Yposition Zposition Zrotation Yrotation Xrotation 
	JOINT LeftUpLeg
	{
		OFFSET 0.069520 -0.091406 -0.006815
		CHANNELS 3 Zrotation Yrotation Xrotation
		JOINT LeftLeg
		{
			OFFSET 0.034277 -0.375199 -0.004496
			CHANNELS 3 Zrotation Yrotation Xrotation
			JOINT LeftFoot
			{
				OFFSET -0.013596 -0.397961 -0.043693
				CHANNELS 3 Zrotation Yrotation Xrotation
				JOINT LeftToe
				{
					OFFSET 0.026358 -0.055791 0.119288
					CHANNELS 3 Zrotation Yrotation Xrotation
					End Site
					{
						OFFSET 0.000000 0.000000 0.000000
					}
				}
			}
		}
	}
	JOINT RightUpLeg
	{
		OFFSET -0.067670 -0.090522 -0.004320
		CHANNELS 3 Zrotation Yrotation Xrotation
		JOINT RightLeg
		{
			OFFSET -0.038290 -0.382569 -0.008850
			CHANNELS 3 Zrotation Yrotation Xrotation
			JOINT RightFoot
			{
				OFFSET 0.015774 -0.398415 -0.042312
				CHANNELS 3 Zrotation Yrotation Xrotation
				JOINT RightToe
				{
					OFFSET -0.025372 -0.048144 0.123348
					CHANNELS 3 Zrotation Yrotation Xrotation
					End Site
					{
						OFFSET 0.000000 0.000000 0.000000
					}
				}
			}
		}
	}
	JOINT Spine
	{
		OFFSET -0.002533 0.108963 -0.026696
		CHANNELS 3 Zrotation Yrotation Xrotation
		JOINT Spine1
		{
			OFFSET 0.005487 0.135180 0.001092
			CHANNELS 3 Zrotation Yrotation Xrotation
			JOINT Spine2
			{
				OFFSET 0.001457 0.052922 0.025425
				CHANNELS 3 Zrotation Yrotation Xrotation
				JOINT Neck
				{
					OFFSET -0.002778 0.213870 -0.042857
					CHANNELS 3 Zrotation Yrotation Xrotation
					JOINT Head
					{
						OFFSET 0.005152 0.064970 0.051349
						CHANNELS 3 Zrotation Yrotation Xrotation
						End Site
						{
							OFFSET 0.000000 0.000000 0.000000
						}
					}
				}
				JOINT LeftShoulder
				{
					OFFSET 0.078845 0.121749 -0.034090
					CHANNELS 3 Zrotation Yrotation Xrotation
					JOINT LeftArm
					{
						OFFSET 0.090977 0.030469 -0.008868
						CHANNELS 3 Zrotation Yrotation Xrotation
						JOINT LeftForeArm
						{
							OFFSET 0.259612 -0.012772 -0.027456
							CHANNELS 3 Zrotation Yrotation Xrotation
							JOINT LeftHand
							{
								OFFSET 0.249234 0.008986 -0.001171
								CHANNELS 3 Zrotation Yrotation Xrotation
								End Site
								{
									OFFSET 0.000000 0.000000 0.000000
								}
							}
						}
					}
				}
				JOINT RightShoulder
				{
					OFFSET -0.081759 0.118833 -0.038615
					CHANNELS 3 Zrotation Yrotation Xrotation
					JOINT RightArm
					{
						OFFSET -0.096012 0.032551 -0.009143
						CHANNELS 3 Zrotation Yrotation Xrotation
						JOINT RightForeArm
						{
							OFFSET -0.253742 -0.013329 -0.021401
							CHANNELS 3 Zrotation Yrotation Xrotation
							JOINT RightHand
							{
								OFFSET -0.255298 0.007772 -0.005559
								CHANNELS 3 Zrotation Yrotation Xrotation
								End Site
								{
									OFFSET 0.000000 0.000000 0.000000
								}
							}
						}
					}
				}
			}
		}
	}
}
MOTION
Frames: 15
Frame Time: 0.050000
0.000000 0.953413 0.000000 1.149228 -10.843795 9.889172 2.451590 -0.686372 -9.856683 0.371189 0.114564 -4.330434 -0.260787 2.643085 11.492083 0.000000 0.000000 0.000000 -3.924489 0.818415 -8.288454 -1.321145 -0.150440 -5.531974 0.439552 -5.944707 12.751168 0.000000 0.000000 0.000000 5.974285 -0.432235 2.186030 -3.677220 1.622644 -2.791166 -0.636972 8.504301 6.575192 10.304517 -6.280975 -9.263295 0.000000 0.000000 0.000000 -13.715796 -10.431158 3.280254 -58.766671 -23.719144 4.897175 -6.942423 -27.719576 2.693241 0.000000 0.000000 0.000000 9.946906 10.007060 4.084530 56.037691 34.122450 11.210872 -10.557150 19.358392 -0.791595 0.000000 0.000000 0.000000 
-0.000564 0.952226 0.002796 0.971615 -11.622636 10.559101 2.317324 -0.657739 -9.164841 0.815969 0.162174 -6.132911 -1.006116 1.523013 12.417939 0.000000 0.000000 0.000000 -3.666678 0.880419 -8.959055 -1.606773 -0.145134 -5.628273 0.477501 -6.394629 13.724667 0.000000 0.000000 0.000000 6.476263 -0.288806 0.317806 -3.453178 1.486053 -3.597482 -1.993682 9.593325 7.331849 12.553574 -7.474432 -10.848287 0.000000 0.000000 0.000000 -13.869073 -8.535950 2.208063 -58.011507 -22.321986 3.976084 -10.583156 -28.552823 3.654291 0.000000 0.000000 0.000000 9.403032 8.111088 3.325286 59.277835 32.918183 11.488000 -8.364797 20.844289 -0.479994 0.000000 0.000000 0.000000 
-0.001430 0.952169 0.005674 1.094003 -10.575056 9.649696 2.168092 -0.603378 -8.026402 0.939430 0.108255 -5.211296 -0.870965 1.180072 9.805209 0.000000 0.000000 0.000000 -3.526527 0.787241 -7.954115 -2.422497 -0.130652 -5.920208 0.504430 -6.321332 14.026244 0.000000 0.000000 0.000000 5.659349 -0.224697 0.117834 -3.264278 1.388478 -4.308571 -2.286807 9.810781 7.787740 11.985943 -7.227302 -10.143942 0.000000 0.000000 0.000000 -12.678285 -6.995097 1.409615 -58.270854 -20.260455 2.804091 -14.112694 -28.292198 4.449272 0.000000 0.000000 0.000000 9.122013 5.523160 2.248808 59.482376 29.254585 9.500683 -2.701064 24.636004 0.551239 0.000000 0.000000 0.000000 
-0.002310 0.951967 0.008554 0.850505 -10.103422 10.064010 2.795724 -0.561146 -7.803962 0.481134 0.177854 -5.945851 -1.698236 -0.122775 10.139061 0.000000 0.000000 0.000000 -3.532578 0.777851 -7.818610 -1.939420 -0.176385 -6.563470 0.077151 -7.037572 14.114721 0.000000 0.000000 0.000000 5.396291 -0.124285 -0.963872 -3.268666 1.401243 -4.111932 -2.389760 9.482384 7.743292 12.065532 -7.036015 -11.131652 0.000000 0.000000 0.000000 -11.650389 -4.902364 0.540016 -60.269216 -18.743064 2.109110 -13.786513 -28.296923 4.365744 0.000000 0.000000 0.000000 8.030419 2.541111 0.895180 62.707792 25.191351 8.003284 0.979089 27.968244 1.512725 0.000000 0.000000 0.000000 
-0.003058 0.951794 0.011313 0.667997 -9.267961 9.433823 2.668717 -0.540934 -7.326790 1.033102 0.115662 -5.463953 -1.905743 -0.589887 9.520237 0.000000 0.000000 0.000000 -3.027308 0.695011 -6.919135 -2.599351 -0.163592 -6.699591 0.685590 -5.823173 14.088636 0.000000 0.000000 0.000000 5.087398 -0.081104 -1.248310 -3.290025 1.410609 -4.385521 -2.633258 9.063341 8.053954 11.306107 -6.665784 -10.515758 0.000000 0.000000 0.000000 -12.246041 -4.000196 0.063581 -59.585161 -17.272271 1.271842 -13.502330 -26.755145 4.045440 0.000000 0.000000 0.000000 7.839485 0.394014 -0.038644 62.935514 20.028953 5.045957 8.013552 31.745967 3.687311 0.000000 0.000000 0.000000 
-0.003700 0.951975 0.013370 0.419745 -8.867922 9.636471 2.789140 -0.551534 -7.566322 1.051674 0.117769 -5.520868 -2.206968 -0.901344 10.051935 0.000000 0.000000 0.000000 -2.567044 0.681138 -6.800704 -2.664242 -0.168293 -6.821551 0.895980 -5.382422 14.072349 0.000000 0.000000 0.000000 4.518695 -0.061457 -1.357032 -2.930869 1.258316 -4.521526 -3.104798 8.877900 7.667836 10.920517 -6.525182 -9.842608 0.000000 0.000000 0.000000 -12.288868 -2.312236 -0.747019 -59.815644 -15.005901 0.122402 -13.045076 -25.071208 3.661094 0.000000 0.000000 0.000000 7.585578 -1.510043 -0.852103 63.310062 15.528176 2.611545 15.507808 34.463675 6.370217 0.000000 0.000000 0.000000 
-0.004013 0.951822 0.014870 0.267804 -8.844976 9.215683 2.830768 -0.536461 -7.394599 1.157376 0.098290 -5.288477 -2.056750 -0.509847 10.421120 0.000000 0.000000 0.000000 -2.346685 0.662044 -6.624602 -2.721441 -0.131801 -6.177628 1.105954 -4.818805 13.622803 0.000000 0.000000 0.000000 4.204636 -0.047668 -1.362637 -3.059263 1.308047 -4.733735 -3.228549 8.662765 7.675295 10.487050 -6.174898 -10.094528 0.000000 0.000000 0.000000 -13.082700 -1.349985 -1.263939 -59.179637 -13.525949 -0.623886 -12.287287 -21.900185 3.047844 0.000000 0.000000 0.000000 7.606804 -2.472789 -1.289283 63.264545 12.221146 0.730363 19.816461 36.294718 8.183423 0.000000 0.000000 0.000000 
-0.004005 0.952140 0.016015 0.090290 -9.007211 9.146581 2.852772 -0.527828 -7.295513 1.181150 0.090689 -5.179747 -1.962167 -0.405799 10.290536 0.000000 0.000000 0.000000 -2.211675 0.670130 -6.732281 -2.758311 -0.107608 -5.753004 1.117883 -4.547425 12.970459 0.000000 0.000000 0.000000 4.064233 -0.037237 -1.435303 -3.001524 1.279436 -4.831141 -3.425776 8.714540 7.490019 10.255066 -6.311392 -8.739781 0.000000 0.000000 0.000000 -12.752209 -0.683317 -1.530951 -59.508878 -11.665226 -1.582837 -11.648108 -19.582327 2.605240 0.000000 0.000000 0.000000 7.338634 -3.612451 -1.767186 63.233557 9.541311 -0.717692 24.891019 37.768059 10.368747 0.000000 0.000000 0.000000 
-0.003972 0.952199 0.017347 -0.053869 -9.257582 8.919914 2.970414 -0.508266 -7.118875 1.219671 0.082776 -5.093948 -1.828247 -0.053244 10.751259 0.000000 0.000000 0.000000 -1.972626 0.634520 -6.355899 -2.910312 -0.108742 -5.878261 1.463041 -3.955082 12.986741 0.000000 0.000000 0.000000 4.141297 -0.031042 -1.485241 -3.264694 1.395151 -4.584443 -3.567155 8.225317 7.108834 9.743106 -6.081175 -8.222980 0.000000 0.000000 0.000000 -12.625968 0.420715 -1.929667 -59.630313 -9.794342 -2.503988 -11.289625 -17.554164 2.291367 0.000000 0.000000 0.000000 6.890000 -4.344413 -2.096041 63.082063 7.431219 -1.888298 28.001959 39.500480 11.992630 0.000000 0.000000 0.000000 
-0.004007 0.952121 0.018950 -0.104266 -9.521314 8.824192 2.988945 -0.491697 -6.875790 1.022188 0.094397 -5.032935 -1.507224 0.422890 10.587429 0.000000 0.000000 0.000000 -2.291461 0.624412 -6.192875 -2.568842 -0.102071 -5.509470 1.645241 -3.373892 12.396481 0.000000 0.000000 0.000000 4.108706 -0.013112 -1.676194 -3.316532 1.402617 -4.976319 -3.700336 8.170986 7.329630 9.798450 -6.198336 -7.966582 0.000000 0.000000 0.000000 -11.736168 1.031915 -2.040194 -59.862772 -7.914155 -3.521371 -12.184901 -17.128675 2.372879 0.000000 0.000000 0.000000 6.250058 -5.665926 -2.603820 62.896431 4.743828 -3.356771 33.875164 42.023231 15.290845 0.000000 0.000000 0.000000 
-0.004250 0.952109 0.020706 -0.197218 -9.714158 8.699845 3.052818 -0.445587 -6.147222 0.981270 0.119386 -5.486452 -1.626627 0.109453 10.309368 0.000000 0.000000 0.000000 -2.241385 0.584356 -5.730203 -2.704632 -0.111705 -5.788561 1.797852 -3.031353 12.224596 0.000000 0.000000 0.000000 4.227037 0.002784 -1.865302 -3.308317 1.398833 -4.928951 -3.765947 7.829248 7.426022 9.426548 -6.139864 -7.121405 0.000000 0.000000 0.000000 -11.237423 1.958355 -2.313455 -59.302625 -6.166133 -4.372919 -13.629597 -18.393024 2.800226 0.000000 0.000000 0.000000 5.830032 -6.739738 -3.028868 62.379737 2.321962 -4.670753 41.568432 45.470436 20.238208 0.000000 0.000000 0.000000 
-0.004496 0.951936 0.022215 -0.174715 -10.012829 8.522143 3.019889 -0.413920 -5.629520 0.966511 0.121331 -5.514545 -1.650155 0.071336 10.424682 0.000000 0.000000 0.000000 -2.527409 0.590695 -5.749988 -2.578136 -0.094873 -5.376068 1.833867 -2.921781 12.053347 0.000000 0.000000 0.000000 4.429786 0.008934 -1.933579 -3.258877 1.386056 -4.569488 -4.087115 7.612904 7.242481 9.951337 -6.684014 -6.486770 0.000000 0.000000 0.000000 -10.586983 2.390764 -2.367153 -58.838692 -5.137045 -4.832748 -15.991647 -20.515417 3.570879 0.000000 0.000000 0.000000 5.312057 -8.015067 -3.500359 62.030831 0.355403 -5.680229 51.755875 47.791786 26.623424 0.000000 0.000000 0.000000 
-0.004702 0.951864 0.023116 -0.140761 -10.492486 8.427980 2.756213 -0.392480 -5.164292 0.980535 0.135131 -5.826429 -1.272957 0.667821 10.408211 0.000000 0.000000 0.000000 -2.731800 0.595369 -5.753490 -2.628094 -0.089585 -5.300620 1.750116 -3.041789 11.830034 0.000000 0.000000 0.000000 4.553611 -0.001758 -1.795751 -3.212898 1.358829 -4.651424 -4.176554 7.644948 7.382357 10.191510 -6.997967 -5.979156 0.000000 0.000000 0.000000 -9.862050 2.494548 -2.271812 -58.008547 -4.551876 -5.057931 -18.950433 -23.853462 4.822436 0.000000 0.000000 0.000000 4.980418 -9.010079 -3.863552 61.417033 -0.733144 -6.223051 62.983257 49.189360 33.929998 0.000000 0.000000 0.000000 
-0.004672 0.951784 0.023297 -0.200201 -10.908805 8.312247 2.650361 -0.376591 -4.894984 1.106782 0.116659 -5.660093 -0.942940 1.102029 10.071420 0.000000 0.000000 0.000000 -2.835571 0.583101 -5.567909 -2.847558 -0.083486 -5.343547 1.901029 -2.835779 11.875378 0.000000 0.000000 0.000000 4.681203 -0.006188 -1.733060 -3.172789 1.343004 -4.488295 -4.141078 7.710306 7.306946 10.724868 -7.323474 -6.341367 0.000000 0.000000 0.000000 -9.029323 2.716722 -2.226740 -57.709774 -4.961670 -4.828900 -21.076157 -26.991998 6.021080 0.000000 0.000000 0.000000 4.349615 -8.846311 -3.711587 61.556452 0.265665 -5.723312 69.423759 50.726978 39.170401 0.000000 0.000000 0.000000 
-0.004354 0.951791 0.022691 -0.098824 -11.107548 8.273676 2.489864 -0.372185 -4.749739 0.977248 0.132841 -5.794264 -0.545276 1.814404 10.208858 0.000000 0.000000 0.000000 -3.059543 0.577685 -5.427119 -3.087797 -0.104059 -5.883540 2.199448 -2.540088 12.364127 0.000000 0.000000 0.000000 4.840211 -0.019588 -1.601795 -3.055176 1.296018 -4.337716 -4.126682 7.734012 7.331829 11.239164 -7.685246 -6.470530 0.000000 0.000000 0.000000 -8.181955 1.837513 -1.725683 -58.179676 -6.447194 -4.152676 -22.479690 -29.357303 6.970244 0.000000 0.000000 0.000000 4.333405 -7.978562 -3.369648 61.667943 3.619365 -4.005676 70.552101 52.432839 41.388576 0.000000 0.000000 0.000000 
